Coordinates
version=1
nRows=60
nColumns=12
inDegrees=yes

Units are S.I. units (second, meters, Newtons, ...)
Angles are in degrees

endheader
time	SC_y	SC_z	SC_x	AC_y	AC_z	AC_x	GH_y	GH_z	GH_yy	EL_x	PS_y
       0.0              -37.78          1.666          9.832          32.53          8.538          11.44         -56.99            5.5          36.63          19.16          159.8
   0.04353              -37.78          1.666          9.836          32.54          8.535          11.44          -57.0          5.505           36.6          19.16          159.8
   0.08705              -37.78          1.667          9.841          32.54          8.531          11.44          -57.0          5.509          36.57          19.16          159.8
    0.1306              -37.79          1.667          9.845          32.54          8.527          11.44         -57.01          5.514          36.54          19.16          159.8
    0.1741              -37.79          1.668          9.851          32.55          8.523          11.44         -57.02           5.52           36.5          19.15          159.8
    0.2176              -37.79          1.668          9.856          32.55          8.519          11.44         -57.03          5.525          36.47          19.15          159.8
    0.2612              -37.79          1.669          9.862          32.56          8.514          11.44         -57.04          5.531          36.43          19.15          159.7
    0.3047               -37.8          1.669          9.868          32.56          8.509          11.43         -57.05          5.538          36.39          19.15          159.7
    0.3482               -37.8           1.67          9.875          32.57          8.504          11.43         -57.07          5.545          36.34          19.15          159.7
    0.3917               -37.8           1.67          9.882          32.57          8.498          11.43         -57.08          5.552          36.29          19.15          159.7
    0.4353               -37.8          1.671          9.889          32.58          8.492          11.43         -57.09           5.56          36.24          19.15          159.7
    0.4788              -37.81          1.672          9.898          32.59          8.486          11.42         -57.11          5.568          36.19          19.14          159.7
    0.5223              -37.81          1.672          9.907           32.6          8.479          11.42         -57.13          5.578          36.13          19.14          159.7
    0.5658              -37.82          1.673          9.916           32.6          8.471          11.42         -57.14          5.588          36.06          19.14          159.7
    0.6094              -37.82          1.674          9.927          32.61          8.463          11.42         -57.16          5.598          35.99          19.14          159.7
    0.6529              -37.83          1.675          9.938          32.62          8.454          11.41         -57.18           5.61          35.92          19.14          159.7
    0.6964              -37.83          1.676           9.95          32.63          8.444          11.41         -57.21          5.623          35.83          19.13          159.7
    0.7399              -37.84          1.677          9.963          32.64          8.434          11.41         -57.23          5.637          35.74          19.13          159.7
    0.7835              -37.84          1.678          9.978          32.66          8.422           11.4         -57.26          5.652          35.65          19.13          159.7
     0.827              -37.85          1.679          9.994          32.67           8.41           11.4         -57.29          5.668          35.54          19.12          159.7
    0.8705              -37.86          1.681          10.01          32.68          8.396          11.39         -57.32          5.687          35.42          19.12          159.7
     0.914              -37.87          1.682          10.03           32.7          8.381          11.39         -57.35          5.707          35.29          19.12          159.7
    0.9576              -37.88          1.684          10.05          32.72          8.364          11.38         -57.39          5.729          35.15          19.11          159.7
     1.001              -37.89          1.686          10.08          32.74          8.345          11.37         -57.44          5.753          34.99          19.11          159.7
     1.045               -37.9          1.688           10.1          32.76          8.324          11.36         -57.48          5.781          34.81           19.1          159.6
     1.088              -37.91          1.691          10.13          32.79          8.301          11.36         -57.54          5.811          34.62          19.09          159.6
     1.132              -37.93          1.693          10.16          32.81          8.275          11.35          -57.6          5.845          34.39          19.09          159.6
     1.175              -37.94          1.696           10.2          32.84          8.246          11.33         -57.67          5.883          34.15          19.08          159.6
     1.219              -37.96            1.7          10.24          32.88          8.213          11.32         -57.74          5.927          33.87          19.07          159.6
     1.262              -37.98          1.704          10.29          32.92          8.176          11.31         -57.83          5.976          33.55          19.06          159.6
     1.306              -38.01          1.708          10.34          32.97          8.133          11.29         -57.93          6.032          33.18          19.05          159.5
     1.349              -38.03          1.713          10.41          33.02          8.084          11.27         -58.04          6.096          32.77          19.03          159.5
     1.393              -38.06          1.719          10.48          33.08          8.028          11.25         -58.17          6.171          32.29          19.02          159.5
     1.436               -38.1          1.726          10.56          33.15          7.962          11.23         -58.33          6.257          31.73           19.0          159.4
      1.48              -38.14          1.734          10.66          33.23          7.885           11.2         -58.51          6.358          31.07          18.98          159.4
     1.523               -38.2          1.743          10.77          33.33          7.794          11.16         -58.72          6.477           30.3          18.95          159.3
     1.567              -38.26          1.755          10.91          33.44          7.687          11.12         -58.97          6.619          29.38          18.92          159.3
      1.61              -38.33          1.768          11.07          33.58          7.557          11.07         -59.27          6.788          28.28          18.89          159.2
     1.654              -38.42          1.784          11.27          33.75          7.401          11.02         -59.63          6.994          26.95          18.84          159.1
     1.697              -38.52          1.804          11.51          33.95           7.21          10.94         -60.08          7.244          25.33          18.79          159.0
     1.741              -38.65          1.829          11.81           34.2          6.975          10.85         -60.62          7.554          23.32          18.73          158.9
     1.785              -38.82          1.859          12.18          34.52          6.681          10.74         -61.31           7.94          20.82          18.64          158.7
     1.828              -39.03          1.898          12.65          34.91          6.311           10.6         -62.17          8.426          17.67          18.54          158.5
     1.872              -39.29          1.947          13.25          35.42          5.841          10.43         -63.26          9.044          13.67          18.41          158.3
     1.915              -39.63          2.009          14.01          36.06          5.238           10.2         -64.66          9.835          8.546          18.24          157.9
     1.959              -40.06          2.089          14.98          36.89          4.466          9.907         -66.46          10.85          1.969          18.03          157.5
     2.002              -40.61          2.192          16.23          37.94          3.479          9.534         -68.75          12.15         -6.432          17.76          156.9
     2.046              -41.31          2.321           17.8          39.27          2.238          9.065         -71.64          13.78         -16.99          17.41          156.2
     2.089              -42.15          2.478          19.72          40.89         0.7254          8.494         -75.15          15.76         -29.87          16.99          155.4
     2.133              -43.13          2.661          21.94          42.77         -1.028          7.832         -79.23          18.07         -44.79           16.5          154.4
     2.176               -44.2          2.858          24.34           44.8         -2.926          7.115         -83.64          20.56         -60.94          15.98          153.4
      2.22              -45.26          3.055          26.74          46.83         -4.824          6.398         -88.06          23.05          -77.1          15.45          152.3
     2.263              -46.24          3.237          28.96           48.7         -6.577          5.736         -92.13          25.36         -92.02          14.97          151.3
     2.307              -47.09          3.395          30.87          50.32         -8.089          5.165         -95.65          27.34         -104.9          14.55          150.5
      2.35              -47.78          3.524          32.44          51.65          -9.33          4.697         -98.53          28.98         -115.5           14.2          149.8
     2.394              -48.33          3.626          33.69           52.7         -10.32          4.324         -100.8          30.27         -123.9          13.93          149.2
     2.437              -48.77          3.707          34.67          53.53         -11.09          4.032         -102.6          31.29         -130.4          13.71          148.8
     2.481               -49.1          3.769          35.43          54.18         -11.69          3.805         -104.0          32.08         -135.6          13.55          148.5
     2.524              -49.37          3.818          36.03          54.68         -12.16          3.627         -105.1           32.7         -139.6          13.42          148.2
     2.568              -49.57          3.857          36.49          55.07         -12.53          3.487         -106.0          33.18         -142.7          13.31          148.0
